<svg version="1.2" xmlns="http://www.w3.org/2000/svg" viewBox="0 0 2048 2048" width="2048" height="2048">
	<style>
		.s0 { fill: #000000 } 
	</style>
	<path id="Background copy 5" fill-rule="evenodd" class="s0" d="m0 1024.38c0-189.45 148.46-343.69 335.58-352.94v-0.44h1375.76v0.39c187.63 8.7 336.66 163.18 336.66 352.99 0 189.82-149.03 344.29-336.66 353v0.39h-1375.76v-0.44c-187.12-9.25-335.58-163.5-335.58-352.95zm208-0.31c0 81.52 63.88 147.9 144.41 151.88v0.18h1342.63v-0.16c80.74-3.75 144.87-70.22 144.87-151.9 0-81.68-64.13-148.16-144.87-151.9v-0.17h-1342.63v0.19c-80.53 3.98-144.41 70.35-144.41 151.88z"/>
</svg>